<?xml version="1.0" encoding="utf-8"?>
<!-- Generator: Adobe Illustrator 21.1.0, SVG Export Plug-In . SVG Version: 6.00 Build 0)  -->
<svg version="1.1" id="Layer_1" xmlns="http://www.w3.org/2000/svg" xmlns:xlink="http://www.w3.org/1999/xlink" x="0px" y="0px"
	 viewBox="0 0 156.8 66.2" style="enable-background:new 0 0 156.8 66.2;" xml:space="preserve">
<style type="text/css">
	.st0{fill-rule:evenodd;clip-rule:evenodd;fill:#231F20;}
	.st1{fill-rule:evenodd;clip-rule:evenodd;fill:#EC1C24;}
</style>
<g>
	<path class="st0" d="M34.4,39.6c4.4,0,7.9,3.6,7.9,7.9c0,4.4-3.6,7.9-7.9,7.9c-4.4,0-7.9-3.6-7.9-7.9C26.5,43.2,30,39.6,34.4,39.6"
		/>
	<path class="st1" d="M104.1,57.6v-2.4c-0.7,1.1-1.5,2.1-2.5,3v0c-3.6,3.6-8.5,5.8-14,5.8H61.7c-0.2,0-0.4,0-0.6,0
		c-3,0.2-6-1.3-7.6-4.1L34.4,26.8L15.3,59.9c-2.3,3.9-7.3,5.3-11.2,3l0,0c-3.9-2.3-5.3-7.3-3-11.2L26.7,7.4c1.2-3.2,4.3-5.3,7.7-5.3
		c3.4,0,6.5,2,7.7,5.3l9.8,17l22,0c1,0,2-0.4,2.6-1.1v0c0.7-0.7,1.1-1.6,1.1-2.6c0-1-0.4-1.9-1.1-2.6c-0.7-0.7-1.6-1.1-2.6-1.1H61.7
		c-11.5,0-11.5-16.1,0-16.1h12.2c5.5,0,10.4,2.2,14,5.8c3.6,3.6,5.8,8.5,5.8,14c0,1.6-0.2,3.1-0.6,4.5c3.2,0.9,6.1,2.7,8.4,5
		c0.9,0.9,1.7,1.9,2.5,3V8c0-5.1,3.3-8,8-8H133c11.4,0,18.6,5.5,21.8,12.5c1.3,2.8,2,5.9,2,8.8c0,2.9-0.6,5.9-1.9,8.7
		c-3.2,7.1-10.1,12.6-20.3,12.6h-2.4c-11.5,0-11.5-16.1,0-16.1h2.4c8.3,0,8.7-10.4-1.6-10.4h-12.9v41.5
		C120.1,69,104.1,69.1,104.1,57.6z M65.5,47.9h22.1c1,0,1.9-0.4,2.6-1.1v0c0.7-0.7,1.1-1.6,1.1-2.7c0-1-0.4-1.9-1.1-2.6
		c-0.7-0.7-1.6-1.1-2.6-1.1H61.2L65.5,47.9z"/>
</g>
</svg>
