<svg xmlns="http://www.w3.org/2000/svg" viewBox="0 0 171.7 68.14"><defs><style>.cls-1{fill:#231f20;}.cls-1,.cls-2{fill-rule:evenodd;}.cls-2{fill:#ec1c24;}.cls-3{font-size:11px;fill:#2f2b2c;font-family:Arial-BoldMT, Arial;font-weight:700;}.cls-4{font-size:8px;}</style></defs><g id="Слой_2" data-name="Слой 2"><g id="Слой_3" data-name="Слой 3"><path class="cls-1" d="M34.94,40.25a8.08,8.08,0,1,1-8.07,8.08,8.1,8.1,0,0,1,8.07-8.08"/><path class="cls-2" d="M105.7,58.48v-2.4a20.57,20.57,0,0,1-2.49,3v0A20.09,20.09,0,0,1,89,65.05H62.11a8.35,8.35,0,0,1-7.75-4.15L34.94,27.28,15.54,60.89a8.34,8.34,0,0,1-11.38,3h0a8.36,8.36,0,0,1-3-11.38l26-45.05a8.42,8.42,0,0,1,15.67,0l10,17.27H75.12a3.75,3.75,0,0,0,2.67-1.09v0a3.79,3.79,0,0,0-2.67-6.46H62.68C51,17.19,51,.84,62.68.84H75.11A20.18,20.18,0,0,1,95.24,21a18.56,18.56,0,0,1-.58,4.62,20.2,20.2,0,0,1,8.54,5.09,19,19,0,0,1,2.49,3V8.17C105.69,3,109.05,0,113.86,0h21.26C146.68,0,154,5.57,157.31,12.7a21.13,21.13,0,0,1,2,9,21.61,21.61,0,0,1-1.91,8.83c-3.21,7.19-10.27,12.8-20.65,12.8h-2.41c-11.65,0-11.67-16.35,0-16.35h2.41c8.4,0,8.81-10.59-1.64-10.59H122V58.49C122.06,70.13,105.7,70.16,105.7,58.48ZM66.56,48.7H89a3.74,3.74,0,0,0,2.67-1.12v0a3.84,3.84,0,0,0,1.12-2.71A3.82,3.82,0,0,0,89,41.12H62.19Z"/><g id="Team_Business" data-name="Team Business"><text class="cls-3" transform="translate(127.01 53.85)">TEAM <tspan class="cls-4"><tspan x="0" y="9">BUSINESS</tspan></tspan></text></g></g></g></svg>