<?xml version="1.0" encoding="utf-8"?>
<!-- Generator: Adobe Illustrator 25.0.1, SVG Export Plug-In . SVG Version: 6.00 Build 0)  -->
<svg version="1.1" id="Layer_1" xmlns="http://www.w3.org/2000/svg" xmlns:xlink="http://www.w3.org/1999/xlink" x="0px" y="0px"
	 viewBox="0 0 213.54 66.17" style="enable-background:new 0 0 213.54 66.17;" xml:space="preserve">
<style type="text/css">
	.st0{fill-rule:evenodd;clip-rule:evenodd;fill:#231F20;}
	.st1{fill-rule:evenodd;clip-rule:evenodd;fill:#EC1C24;}
</style>
<g>
	<path class="st0" d="M34.4,39.62c4.37,0,7.95,3.57,7.95,7.95c0,4.37-3.57,7.95-7.95,7.95c-4.38,0-7.95-3.57-7.95-7.95
		C26.46,43.19,30.03,39.62,34.4,39.62"/>
	<path class="st1" d="M104.05,57.56V55.2c-0.72,1.07-1.54,2.07-2.45,2.98v0.03c-3.59,3.59-8.54,5.82-14,5.82H61.7
		c-0.19,0-0.38-0.01-0.56-0.01c-3.01,0.18-6.03-1.3-7.63-4.08L34.4,26.85L15.3,59.94c-2.25,3.91-7.3,5.26-11.2,3l0,0
		c-3.91-2.26-5.26-7.3-3-11.2l25.6-44.35c1.23-3.21,4.3-5.29,7.71-5.25c3.41-0.03,6.48,2.04,7.71,5.25l9.82,17l22.01-0.01
		c1.04,0,1.97-0.41,2.63-1.07v-0.03c0.68-0.68,1.1-1.61,1.1-2.63c0-1.02-0.42-1.95-1.1-2.63c-0.68-0.68-1.61-1.1-2.63-1.1H61.7
		c-11.47,0-11.49-16.09,0-16.09h12.24c5.46,0,10.41,2.23,14,5.81c3.59,3.59,5.81,8.54,5.81,14c0,1.61-0.2,3.13-0.57,4.55
		c3.22,0.95,6.1,2.7,8.41,5.01c0.91,0.91,1.74,1.91,2.45,2.98V8.04c0-5.14,3.31-8.04,8.04-8.04h20.93c11.38,0,18.56,5.48,21.84,12.5
		c1.33,2.84,1.98,5.86,1.98,8.82c0,2.93-0.63,5.91-1.88,8.69c-3.16,7.08-10.11,12.6-20.33,12.6h-2.37c-11.47,0-11.49-16.09,0-16.09
		h2.37c8.27,0,8.68-10.43-1.61-10.43h-12.88v41.48C120.15,69.03,104.05,69.06,104.05,57.56z M65.52,47.94H87.6
		c1.01,0,1.95-0.42,2.63-1.1v0.03c0.68-0.68,1.1-1.62,1.1-2.66c0-1.02-0.42-1.95-1.1-2.63c-0.68-0.68-1.61-1.1-2.63-1.1H61.22
		L65.52,47.94z"/>
	<g>
		<path class="st0" d="M130.76,47.8h-1.62l-2.95,7.57h1.62l0.62-1.72h3.02l0.66,1.72h1.66L130.76,47.8z M128.91,52.37l1.02-2.81
			l1.04,2.81H128.91z"/>
		<path class="st0" d="M135.42,54.59c0.22,0.27,0.51,0.48,0.88,0.65c0.37,0.17,0.92,0.25,1.64,0.25c0.6,0,1.09-0.08,1.46-0.23
			c0.37-0.15,0.67-0.36,0.89-0.62c0.22-0.26,0.37-0.57,0.46-0.95c0.08-0.38,0.12-1.02,0.12-1.93V47.8h-1.53v4.19
			c0,0.6-0.02,1.03-0.07,1.29c-0.04,0.26-0.18,0.48-0.4,0.65c-0.22,0.18-0.55,0.27-0.98,0.27c-0.43,0-0.76-0.09-1.01-0.28
			c-0.25-0.19-0.4-0.44-0.47-0.75c-0.04-0.19-0.06-0.61-0.06-1.26v-4.1h-1.53v4.04c0,0.85,0.05,1.49,0.15,1.92
			C135.06,54.05,135.2,54.33,135.42,54.59z"/>
		<polygon class="st0" points="145.97,55.36 145.97,49.08 148.21,49.08 148.21,47.8 142.19,47.8 142.19,49.08 144.44,49.08 
			144.44,55.36 		"/>
		<path class="st0" d="M155.29,54.46c0.66-0.69,1-1.65,1-2.87c0-1.23-0.33-2.19-1-2.88c-0.67-0.69-1.56-1.04-2.68-1.04
			c-0.62,0-1.16,0.1-1.63,0.3c-0.35,0.15-0.68,0.38-0.98,0.68c-0.3,0.31-0.53,0.65-0.7,1.04c-0.23,0.52-0.35,1.17-0.35,1.94
			c0,1.2,0.33,2.15,1,2.84c0.66,0.69,1.56,1.03,2.68,1.03C153.73,55.49,154.62,55.15,155.29,54.46z M151.11,53.53
			c-0.4-0.44-0.59-1.09-0.59-1.95c0-0.87,0.19-1.52,0.58-1.95c0.39-0.43,0.89-0.65,1.52-0.65c0.63,0,1.13,0.21,1.52,0.64
			c0.38,0.43,0.57,1.07,0.57,1.94c0,0.88-0.2,1.53-0.59,1.97c-0.39,0.44-0.89,0.66-1.5,0.66C152.01,54.19,151.51,53.97,151.11,53.53
			z"/>
		<polygon class="st0" points="161.37,52.96 159.99,47.8 157.71,47.8 157.71,55.36 159.13,55.36 159.13,49.41 160.62,55.36 
			162.09,55.36 163.6,49.41 163.6,55.36 165.02,55.36 165.02,47.8 162.72,47.8 		"/>
		<path class="st0" d="M170.58,47.8h-1.62l-2.95,7.57h1.62l0.62-1.72h3.02l0.66,1.72h1.66L170.58,47.8z M168.73,52.37l1.02-2.81
			l1.04,2.81H168.73z"/>
		<polygon class="st0" points="175.59,55.36 177.12,55.36 177.12,49.08 179.36,49.08 179.36,47.8 173.35,47.8 173.35,49.08 
			175.59,49.08 		"/>
		<rect x="180.55" y="47.8" class="st0" width="1.53" height="7.57"/>
		<path class="st0" d="M187.16,55.49c1.11,0,2-0.35,2.66-1.03c0.66-0.69,1-1.65,1-2.87c0-1.23-0.33-2.19-1-2.88
			c-0.67-0.69-1.56-1.04-2.68-1.04c-0.62,0-1.16,0.1-1.63,0.3c-0.35,0.15-0.68,0.38-0.98,0.68c-0.3,0.31-0.53,0.65-0.7,1.04
			c-0.23,0.52-0.35,1.17-0.35,1.94c0,1.2,0.33,2.15,1,2.84C185.14,55.15,186.03,55.49,187.16,55.49z M185.63,49.62
			c0.39-0.43,0.89-0.65,1.52-0.65c0.63,0,1.13,0.21,1.52,0.64c0.38,0.43,0.57,1.07,0.57,1.94c0,0.88-0.2,1.53-0.58,1.97
			c-0.39,0.44-0.89,0.66-1.5,0.66c-0.61,0-1.11-0.22-1.51-0.66c-0.39-0.44-0.59-1.09-0.59-1.95
			C185.05,50.7,185.24,50.05,185.63,49.62z"/>
		<polygon class="st0" points="198.28,55.36 198.28,47.8 196.86,47.8 196.86,52.85 193.76,47.8 192.27,47.8 192.27,55.36 
			193.69,55.36 193.69,50.43 196.74,55.36 		"/>
		<path class="st0" d="M207.59,54.67c0.53-0.55,0.8-1.23,0.8-2.06c0-0.82-0.26-1.5-0.79-2.04c-0.53-0.54-1.21-0.81-2.04-0.81
			c-0.54,0-1.02,0.12-1.46,0.36c-0.43,0.24-0.77,0.58-1.01,1.03c-0.24,0.45-0.36,0.92-0.36,1.4c0,0.63,0.12,1.16,0.36,1.6
			c0.24,0.44,0.58,0.77,1.04,1c0.46,0.23,0.93,0.34,1.44,0.34C206.38,55.49,207.06,55.22,207.59,54.67z M204.61,53.87
			c-0.26-0.29-0.39-0.71-0.39-1.25c0-0.54,0.13-0.96,0.39-1.25c0.26-0.29,0.58-0.43,0.96-0.43c0.38,0,0.7,0.14,0.95,0.43
			c0.26,0.29,0.39,0.7,0.39,1.24c0,0.55-0.13,0.97-0.39,1.26c-0.26,0.29-0.57,0.43-0.95,0.43
			C205.19,54.31,204.87,54.16,204.61,53.87z"/>
		<path class="st0" d="M209.95,55.36h1.45v-4.34h1.08v-1.14h-1.08V49.5c0-0.28,0.04-0.47,0.14-0.57c0.09-0.1,0.24-0.15,0.45-0.15
			c0.21,0,0.44,0.03,0.67,0.08l0.2-1.01c-0.4-0.12-0.8-0.18-1.21-0.18c-0.4,0-0.73,0.07-1,0.21c-0.26,0.14-0.44,0.33-0.54,0.56
			c-0.1,0.23-0.15,0.57-0.15,1.03v0.41h-0.8v1.14h0.8V55.36z"/>
		<path class="st0" d="M130.32,61.1c0.24-0.11,0.43-0.27,0.57-0.48c0.14-0.22,0.21-0.45,0.21-0.71c0-0.24-0.06-0.45-0.17-0.64
			c-0.11-0.19-0.25-0.34-0.42-0.46c-0.17-0.12-0.36-0.19-0.57-0.23c-0.21-0.04-0.54-0.06-0.97-0.06h-2.2v5.5h1.87
			c0.71-0.01,1.16-0.02,1.34-0.04c0.3-0.03,0.54-0.12,0.75-0.26c0.2-0.14,0.36-0.33,0.48-0.57c0.12-0.24,0.17-0.48,0.17-0.73
			c0-0.32-0.09-0.59-0.27-0.83C130.92,61.37,130.66,61.2,130.32,61.1z M127.87,59.44h0.64c0.52,0,0.84,0.01,0.95,0.02
			c0.18,0.02,0.32,0.09,0.42,0.19c0.09,0.11,0.14,0.24,0.14,0.42c0,0.18-0.05,0.32-0.16,0.43c-0.11,0.11-0.26,0.17-0.45,0.2
			c-0.1,0.01-0.37,0.02-0.81,0.02h-0.73V59.44z M130.06,62.85c-0.1,0.12-0.24,0.19-0.4,0.22c-0.11,0.02-0.36,0.03-0.76,0.03h-1.03
			v-1.47h0.9c0.5,0,0.83,0.03,0.99,0.08c0.15,0.05,0.27,0.14,0.35,0.25c0.08,0.12,0.12,0.25,0.12,0.42
			C130.22,62.57,130.17,62.73,130.06,62.85z"/>
		<path class="st0" d="M135.48,61.57c0,0.44-0.02,0.75-0.05,0.94c-0.03,0.19-0.13,0.35-0.29,0.47c-0.16,0.13-0.4,0.19-0.71,0.19
			c-0.31,0-0.55-0.07-0.73-0.21c-0.18-0.14-0.29-0.32-0.34-0.54c-0.03-0.14-0.04-0.45-0.04-0.92v-2.98h-1.11v2.93
			c0,0.62,0.04,1.08,0.11,1.4c0.05,0.21,0.15,0.42,0.31,0.61c0.16,0.19,0.37,0.35,0.64,0.47c0.27,0.12,0.67,0.18,1.2,0.18
			c0.43,0,0.79-0.05,1.06-0.17c0.27-0.11,0.49-0.26,0.65-0.45c0.16-0.19,0.27-0.42,0.33-0.69c0.06-0.27,0.09-0.74,0.09-1.4v-2.89
			h-1.11V61.57z"/>
		<path class="st0" d="M141.03,60.99c-0.26-0.14-0.66-0.27-1.2-0.4c-0.54-0.13-0.88-0.25-1.02-0.37c-0.11-0.09-0.17-0.2-0.17-0.33
			c0-0.14,0.06-0.26,0.18-0.34c0.18-0.13,0.44-0.2,0.76-0.2c0.31,0,0.55,0.06,0.7,0.19c0.16,0.12,0.26,0.33,0.31,0.61l1.11-0.05
			c-0.02-0.51-0.2-0.91-0.55-1.21c-0.35-0.3-0.87-0.45-1.56-0.45c-0.42,0-0.78,0.06-1.08,0.19c-0.3,0.13-0.53,0.31-0.69,0.56
			c-0.16,0.24-0.24,0.51-0.24,0.79c0,0.44,0.17,0.8,0.51,1.11c0.24,0.22,0.66,0.4,1.25,0.54c0.46,0.12,0.76,0.19,0.89,0.24
			c0.19,0.07,0.32,0.15,0.4,0.24c0.08,0.09,0.11,0.2,0.11,0.33c0,0.2-0.09,0.38-0.27,0.53c-0.18,0.15-0.45,0.23-0.81,0.23
			c-0.34,0-0.61-0.09-0.8-0.25c-0.2-0.17-0.33-0.44-0.4-0.8l-1.08,0.11c0.07,0.61,0.29,1.08,0.67,1.41c0.37,0.32,0.91,0.48,1.6,0.48
			c0.48,0,0.88-0.07,1.2-0.2c0.32-0.13,0.57-0.34,0.74-0.61c0.18-0.27,0.26-0.57,0.26-0.89c0-0.35-0.07-0.64-0.22-0.88
			C141.49,61.31,141.28,61.12,141.03,60.99z"/>
		<rect x="142.66" y="58.52" class="st0" width="1.11" height="5.5"/>
		<polygon class="st0" points="148.07,62.2 145.82,58.52 144.74,58.52 144.74,64.03 145.77,64.03 145.77,60.44 147.99,64.03 
			149.11,64.03 149.11,58.52 148.07,58.52 		"/>
		<polygon class="st0" points="151.29,61.6 154.06,61.6 154.06,60.67 151.29,60.67 151.29,59.45 154.26,59.45 154.26,58.52 
			150.18,58.52 150.18,64.03 154.37,64.03 154.37,63.1 151.29,63.1 		"/>
		<path class="st0" d="M158.58,60.99c-0.26-0.14-0.66-0.27-1.2-0.4c-0.54-0.13-0.88-0.25-1.02-0.37c-0.11-0.09-0.17-0.2-0.17-0.33
			c0-0.14,0.06-0.26,0.18-0.34c0.18-0.13,0.44-0.2,0.76-0.2c0.31,0,0.55,0.06,0.7,0.19c0.16,0.12,0.26,0.33,0.31,0.61l1.11-0.05
			c-0.02-0.51-0.2-0.91-0.55-1.21c-0.35-0.3-0.87-0.45-1.56-0.45c-0.42,0-0.78,0.06-1.08,0.19c-0.3,0.13-0.53,0.31-0.69,0.56
			c-0.16,0.24-0.24,0.51-0.24,0.79c0,0.44,0.17,0.8,0.51,1.11c0.24,0.22,0.66,0.4,1.25,0.54c0.46,0.12,0.76,0.19,0.89,0.24
			c0.19,0.07,0.32,0.15,0.4,0.24c0.08,0.09,0.11,0.2,0.11,0.33c0,0.2-0.09,0.38-0.27,0.53c-0.18,0.15-0.45,0.23-0.81,0.23
			c-0.34,0-0.61-0.09-0.8-0.25c-0.2-0.17-0.33-0.44-0.4-0.8l-1.08,0.11c0.07,0.61,0.29,1.08,0.67,1.41c0.37,0.32,0.91,0.48,1.6,0.48
			c0.48,0,0.88-0.07,1.2-0.2c0.32-0.13,0.57-0.34,0.74-0.61c0.18-0.27,0.26-0.57,0.26-0.89c0-0.35-0.07-0.64-0.22-0.88
			C159.04,61.31,158.83,61.12,158.58,60.99z"/>
		<path class="st0" d="M163.61,60.99c-0.26-0.14-0.66-0.27-1.2-0.4c-0.54-0.13-0.88-0.25-1.02-0.37c-0.11-0.09-0.16-0.2-0.16-0.33
			c0-0.14,0.06-0.26,0.18-0.34c0.18-0.13,0.44-0.2,0.76-0.2c0.31,0,0.55,0.06,0.7,0.19c0.16,0.12,0.26,0.33,0.31,0.61l1.11-0.05
			c-0.02-0.51-0.2-0.91-0.55-1.21c-0.35-0.3-0.87-0.45-1.56-0.45c-0.42,0-0.78,0.06-1.08,0.19c-0.3,0.13-0.53,0.31-0.69,0.56
			c-0.16,0.24-0.24,0.51-0.24,0.79c0,0.44,0.17,0.8,0.51,1.11c0.24,0.22,0.66,0.4,1.25,0.54c0.46,0.12,0.76,0.19,0.89,0.24
			c0.19,0.07,0.32,0.15,0.4,0.24c0.08,0.09,0.12,0.2,0.12,0.33c0,0.2-0.09,0.38-0.27,0.53c-0.18,0.15-0.45,0.23-0.81,0.23
			c-0.34,0-0.61-0.09-0.81-0.25c-0.2-0.17-0.33-0.44-0.4-0.8l-1.08,0.11c0.07,0.61,0.29,1.08,0.67,1.41
			c0.37,0.32,0.91,0.48,1.6,0.48c0.48,0,0.88-0.07,1.2-0.2c0.32-0.13,0.57-0.34,0.74-0.61c0.18-0.27,0.26-0.57,0.26-0.89
			c0-0.35-0.07-0.64-0.22-0.88C164.07,61.31,163.86,61.12,163.61,60.99z"/>
		<path class="st0" d="M170.51,58.61c-0.21-0.05-0.65-0.08-1.32-0.08h-1.78v5.5h1.11v-2.08h0.72c0.5,0,0.89-0.03,1.15-0.08
			c0.19-0.04,0.39-0.13,0.58-0.26c0.19-0.13,0.34-0.31,0.47-0.54c0.12-0.23,0.18-0.51,0.18-0.85c0-0.44-0.11-0.79-0.32-1.07
			C171.09,58.87,170.82,58.69,170.51,58.61z M170.35,60.66c-0.08,0.12-0.2,0.21-0.35,0.27c-0.15,0.06-0.44,0.09-0.88,0.09h-0.61
			v-1.56h0.54c0.4,0,0.67,0.01,0.8,0.04c0.18,0.03,0.33,0.11,0.45,0.24c0.12,0.13,0.18,0.3,0.18,0.5
			C170.48,60.39,170.43,60.54,170.35,60.66z"/>
		<path class="st0" d="M176.08,62.06c-0.16-0.17-0.35-0.32-0.6-0.46c0.48-0.07,0.85-0.24,1.09-0.51c0.24-0.27,0.36-0.61,0.36-1.02
			c0-0.33-0.08-0.61-0.24-0.87c-0.16-0.25-0.37-0.43-0.64-0.53c-0.27-0.1-0.69-0.15-1.28-0.15h-2.34v5.5h1.11v-2.3h0.22
			c0.26,0,0.44,0.02,0.56,0.06c0.12,0.04,0.23,0.12,0.33,0.23c0.1,0.11,0.3,0.38,0.59,0.81l0.8,1.2h1.33l-0.67-1.07
			C176.45,62.52,176.24,62.23,176.08,62.06z M174.37,60.85h-0.82v-1.4h0.87c0.45,0,0.72,0.01,0.81,0.02
			c0.18,0.03,0.32,0.1,0.42,0.22c0.1,0.11,0.15,0.26,0.15,0.45c0,0.17-0.04,0.3-0.11,0.41c-0.08,0.11-0.18,0.19-0.31,0.23
			C175.24,60.83,174.91,60.85,174.37,60.85z"/>
		<path class="st0" d="M180.32,58.43c-0.45,0-0.84,0.07-1.19,0.22c-0.26,0.11-0.49,0.27-0.71,0.49c-0.22,0.22-0.39,0.48-0.51,0.75
			c-0.17,0.38-0.25,0.85-0.25,1.41c0,0.88,0.24,1.56,0.72,2.06c0.48,0.5,1.13,0.75,1.95,0.75c0.81,0,1.45-0.25,1.94-0.75
			c0.48-0.5,0.72-1.2,0.72-2.09c0-0.9-0.24-1.6-0.73-2.1C181.78,58.68,181.14,58.43,180.32,58.43z M181.43,62.69
			c-0.28,0.32-0.65,0.48-1.09,0.48c-0.44,0-0.81-0.16-1.1-0.48c-0.29-0.32-0.43-0.79-0.43-1.42c0-0.63,0.14-1.11,0.42-1.42
			c0.28-0.31,0.65-0.47,1.11-0.47c0.46,0,0.83,0.15,1.1,0.46c0.28,0.31,0.41,0.78,0.41,1.41C181.85,61.89,181.71,62.37,181.43,62.69
			z"/>
		<path class="st0" d="M186.83,62.89c-0.21,0.19-0.47,0.28-0.76,0.28c-0.4,0-0.73-0.15-0.98-0.44c-0.25-0.29-0.38-0.79-0.38-1.49
			c0-0.66,0.13-1.13,0.38-1.42c0.25-0.29,0.59-0.44,0.99-0.44c0.29,0,0.55,0.08,0.75,0.25c0.21,0.17,0.34,0.39,0.41,0.68l1.1-0.26
			c-0.13-0.44-0.31-0.78-0.56-1.01c-0.42-0.4-0.97-0.6-1.64-0.6c-0.77,0-1.39,0.25-1.86,0.76c-0.47,0.51-0.71,1.22-0.71,2.13
			c0,0.86,0.24,1.55,0.71,2.05c0.47,0.5,1.07,0.75,1.8,0.75c0.59,0,1.08-0.15,1.46-0.44c0.38-0.29,0.66-0.74,0.82-1.34L187.29,62
			C187.2,62.4,187.05,62.7,186.83,62.89z"/>
		<polygon class="st0" points="190.34,61.6 193.1,61.6 193.1,60.67 190.34,60.67 190.34,59.45 193.3,59.45 193.3,58.52 
			189.22,58.52 189.22,64.03 193.41,64.03 193.41,63.1 190.34,63.1 		"/>
		<path class="st0" d="M197.62,60.99c-0.26-0.14-0.66-0.27-1.2-0.4c-0.54-0.13-0.88-0.25-1.02-0.37c-0.11-0.09-0.16-0.2-0.16-0.33
			c0-0.14,0.06-0.26,0.18-0.34c0.18-0.13,0.44-0.2,0.76-0.2c0.31,0,0.55,0.06,0.7,0.19c0.16,0.12,0.26,0.33,0.31,0.61l1.11-0.05
			c-0.02-0.51-0.2-0.91-0.55-1.21c-0.35-0.3-0.87-0.45-1.56-0.45c-0.42,0-0.78,0.06-1.08,0.19c-0.3,0.13-0.53,0.31-0.69,0.56
			c-0.16,0.24-0.24,0.51-0.24,0.79c0,0.44,0.17,0.8,0.51,1.11c0.24,0.22,0.66,0.4,1.25,0.54c0.46,0.12,0.76,0.19,0.89,0.24
			c0.19,0.07,0.32,0.15,0.4,0.24c0.08,0.09,0.12,0.2,0.12,0.33c0,0.2-0.09,0.38-0.27,0.53c-0.18,0.15-0.45,0.23-0.81,0.23
			c-0.34,0-0.61-0.09-0.81-0.25c-0.2-0.17-0.33-0.44-0.4-0.8l-1.08,0.11c0.07,0.61,0.29,1.08,0.67,1.41
			c0.37,0.32,0.91,0.48,1.6,0.48c0.48,0,0.88-0.07,1.2-0.2c0.32-0.13,0.57-0.34,0.74-0.61c0.18-0.27,0.26-0.57,0.26-0.89
			c0-0.35-0.07-0.64-0.22-0.88C198.08,61.31,197.88,61.12,197.62,60.99z"/>
		<path class="st0" d="M202.65,60.99c-0.26-0.14-0.66-0.27-1.2-0.4c-0.54-0.13-0.88-0.25-1.02-0.37c-0.11-0.09-0.17-0.2-0.17-0.33
			c0-0.14,0.06-0.26,0.18-0.34c0.18-0.13,0.44-0.2,0.76-0.2c0.31,0,0.55,0.06,0.7,0.19c0.16,0.12,0.26,0.33,0.31,0.61l1.11-0.05
			c-0.02-0.51-0.2-0.91-0.55-1.21c-0.35-0.3-0.87-0.45-1.56-0.45c-0.42,0-0.78,0.06-1.08,0.19c-0.3,0.13-0.53,0.31-0.69,0.56
			c-0.16,0.24-0.24,0.51-0.24,0.79c0,0.44,0.17,0.8,0.51,1.11c0.24,0.22,0.66,0.4,1.25,0.54c0.46,0.12,0.76,0.19,0.89,0.24
			c0.19,0.07,0.32,0.15,0.4,0.24c0.08,0.09,0.12,0.2,0.12,0.33c0,0.2-0.09,0.38-0.27,0.53c-0.18,0.15-0.45,0.23-0.81,0.23
			c-0.34,0-0.61-0.09-0.8-0.25c-0.2-0.17-0.33-0.44-0.4-0.8L199,62.24c0.07,0.61,0.29,1.08,0.67,1.41c0.37,0.32,0.91,0.48,1.6,0.48
			c0.48,0,0.88-0.07,1.2-0.2c0.32-0.13,0.57-0.34,0.74-0.61c0.18-0.27,0.26-0.57,0.26-0.89c0-0.35-0.07-0.64-0.22-0.88
			C203.11,61.31,202.91,61.12,202.65,60.99z"/>
		<polygon class="st0" points="205.42,61.6 208.19,61.6 208.19,60.67 205.42,60.67 205.42,59.45 208.39,59.45 208.39,58.52 
			204.31,58.52 204.31,64.03 208.5,64.03 208.5,63.1 205.42,63.1 		"/>
		<path class="st0" d="M213.32,61.55c-0.15-0.24-0.35-0.42-0.61-0.56c-0.26-0.14-0.66-0.27-1.2-0.4c-0.54-0.13-0.88-0.25-1.02-0.37
			c-0.11-0.09-0.17-0.2-0.17-0.33c0-0.14,0.06-0.26,0.18-0.34c0.18-0.13,0.44-0.2,0.76-0.2c0.31,0,0.55,0.06,0.7,0.19
			c0.16,0.12,0.26,0.33,0.31,0.61l1.11-0.05c-0.02-0.51-0.2-0.91-0.55-1.21c-0.35-0.3-0.87-0.45-1.56-0.45
			c-0.42,0-0.78,0.06-1.08,0.19c-0.3,0.13-0.53,0.31-0.69,0.56c-0.16,0.24-0.24,0.51-0.24,0.79c0,0.44,0.17,0.8,0.51,1.11
			c0.24,0.22,0.66,0.4,1.25,0.54c0.46,0.12,0.76,0.19,0.89,0.24c0.19,0.07,0.32,0.15,0.4,0.24c0.08,0.09,0.12,0.2,0.12,0.33
			c0,0.2-0.09,0.38-0.27,0.53c-0.18,0.15-0.45,0.23-0.81,0.23c-0.34,0-0.61-0.09-0.8-0.25c-0.2-0.17-0.33-0.44-0.4-0.8l-1.08,0.11
			c0.07,0.61,0.29,1.08,0.67,1.41c0.37,0.32,0.91,0.48,1.6,0.48c0.48,0,0.88-0.07,1.2-0.2c0.32-0.13,0.57-0.34,0.74-0.61
			c0.17-0.27,0.26-0.57,0.26-0.89C213.54,62.08,213.46,61.78,213.32,61.55z"/>
	</g>
</g>
</svg>
